<svg version="1.1" id="Layer_1" xmlns="http://www.w3.org/2000/svg" xmlns:xlink="http://www.w3.org/1999/xlink" x="0px" y="0px"
	 viewBox="0 0 680 280" style="enable-background:new 0 0 680 280;" xml:space="preserve">
<style type="text/css">
	.st0{fill:#1C2126;}
	.st1{fill:#32393F;}
</style>
<g>
	<path class="st0" d="M71.6,121.8H57v44.3H35.2V48h44c27,0,39.6,17.7,39.6,36.9c0,14.4-7.5,28.8-24.8,34.4l29.7,46.8H97.9
		L71.6,121.8z M57,102.2h19.8c14.2,0,19.7-8.5,19.7-17.1c0-9-5.9-16.8-17.3-16.8H57V102.2z"/>
	<path class="st0" d="M218.8,130.1h-66.2c2.5,11.2,10.7,20,26.5,20c10.2-0.2,20.1-3.3,28.6-8.9l8.3,14.9c-8.2,6.1-21.9,12-37.7,12
		c-32.6,0-47-22.4-47-45.4c0-25.9,18.1-45.4,45.1-45.4c24.5,0,43,16.2,43,43.7C219.4,124,219.1,127.1,218.8,130.1z M152.6,114.3
		h46.4c-1.8-12.2-10.7-19.7-22.5-19.7C164.2,94.7,155.3,102.3,152.6,114.3z"/>
	<path class="st0" d="M237.7,166.1V44.6h20.8v121.5H237.7z"/>
	<path class="st0" d="M364.1,79.3v86.8h-19.8v-10.7c-7.1,8.2-17.4,12.9-28.3,12.8c-25.1,0-43-20.1-43-45.9c0-26.1,18.2-45.1,43-45.1
		c12.5,0,21.6,5.6,28.3,13.1v-11L364.1,79.3z M344.7,122.6c0-14.4-10.4-26.4-25.6-26.4c-15.3,0-25.4,12-25.4,26.4
		c0,14.5,10.2,26.5,25.4,26.5S344.7,137.2,344.7,122.6z"/>
	<path class="st0" d="M448.9,161c-6.7,4.6-16.3,7.2-25.1,7.2c-19.7,0-29.7-11.8-29.7-33.9V96.9h-14.4V79.3h14.7V48.6H415v30.7h29.1
		v17.6H415v36.6c0,10.2,3.7,15.7,12.6,15.7c5.2-0.1,10.3-1.7,14.7-4.5L448.9,161z"/>
	<path class="st0" d="M453.9,122.6c0-25.1,18.9-45.6,46.4-45.6s46.4,20.5,46.4,45.6c0,25.3-18.9,45.7-46.4,45.7
		S453.9,147.9,453.9,122.6z M525.7,122.6c0-14.4-11-26.2-25.4-26.2s-25.4,11.8-25.4,26.2c0,14.7,11,26.4,25.4,26.4
		S525.7,137.3,525.7,122.6z"/>
	<path class="st0" d="M562.9,79.3h20.5v12.2c4.6-8.5,14.5-14.4,27.3-14.4c17.6,0,34,11.5,34,36.1v52.9h-20.9V119
		c0-14.9-7.8-22.9-19-22.9c-12.5,0-21.1,9.6-21.1,23.2v46.8h-20.8V79.3z"/>
	<path class="st1" d="M59.7,226.6l3.5,3.5c-3,3.4-7.4,5.3-11.9,5.3c-9,0-15.7-6.9-15.7-16s6.8-16.1,15.7-16.1
		c4.3,0,8.5,1.7,11.5,4.9l-3.6,3.5c-2-2.2-4.9-3.4-7.9-3.4c-6.1,0-10.3,5.1-10.3,11.1s4.2,11.1,10.3,11.1
		C54.5,230.4,57.6,229,59.7,226.6z"/>
	<path class="st1" d="M100.3,219.3c0,9.2-6.6,16-15.7,16s-15.7-6.9-15.7-16s6.7-16.1,15.7-16.1S100.3,210.2,100.3,219.3z
		 M94.9,219.3c0-6-4-11-10.3-11s-10.3,5-10.3,11s4,11,10.3,11S94.9,225.3,94.9,219.3z"/>
	<path class="st1" d="M113.2,203.8l15.5,21.4v-21.4h5.3v31h-4.8l-15.5-21.2v21.3h-5.3v-31L113.2,203.8z"/>
	<path class="st1" d="M148.7,203.8l15.5,21.4v-21.4h5.3v31h-4.8l-15.5-21.2v21.3h-5.3v-31L148.7,203.8z"/>
	<path class="st1" d="M184.8,216.4h12.4v5.1h-12.4v8.3h13.8v5.1h-19.1v-31h18.8v5.1h-13.5V216.4z"/>
	<path class="st1" d="M229.3,226.6l3.5,3.5c-3,3.4-7.4,5.3-11.9,5.3c-9,0-15.7-6.9-15.7-16s6.8-16.1,15.7-16.1
		c4.3-0.1,8.5,1.7,11.5,4.9l-3.6,3.5c-2-2.2-4.9-3.4-7.9-3.4c-6.1,0-10.3,5.1-10.3,11.1s4.2,11.1,10.3,11.1
		C224.2,230.4,227.3,229,229.3,226.6z"/>
	<path class="st1" d="M246.2,208.9h-8.6v-5.1h22.4v5.1h-8.5v26h-5.3L246.2,208.9z"/>
	<path class="st1" d="M267.9,203.8h5.3v31h-5.3V203.8z"/>
	<path class="st1" d="M288.6,203.8l15.5,21.4v-21.4h5.3v31h-4.8l-15.5-21.2v21.3h-5.3v-31L288.6,203.8z"/>
	<path class="st1" d="M340.1,228.9v-6.6h-7v-5h12.3v14.1c0,0-4,3.9-11.5,3.9c-8.8,0.2-16.1-6.8-16.3-15.6c0-0.1,0-0.3,0-0.4
		c-0.2-8.7,6.8-15.9,15.5-16.1c0.2,0,0.4,0,0.6,0c4.3-0.1,8.5,1.6,11.5,4.6l-3.6,3.6c-2-2.2-4.9-3.3-7.8-3.2
		c-6.3,0-10.7,5.1-10.7,11.1c-0.1,6,4.8,11,10.8,11.1c0,0,0.1,0,0.1,0C338.3,230.4,340.1,228.9,340.1,228.9z"/>
	<path class="st1" d="M380.5,221.9c-4.6-1.6-9.7-4.1-9.7-9.8c0-4.4,3.9-8.8,10.2-8.8c3.9,0.1,7.6,1.9,10.1,4.9l-3.7,3.6
		c0,0-2.6-3.5-6.4-3.5c-2.7,0-4.8,1.6-4.8,3.7c0,2.7,2.4,3.5,6.7,5.1c4.7,1.8,8.7,3.9,8.7,9.5s-5,8.6-10.8,8.6
		c-4.6,0-8.9-2.4-11.3-6.3l4-3.4c0,0,2.7,4.6,7.4,4.6c2.7,0,5.4-1.1,5.4-3.6S384.1,223.2,380.5,221.9z"/>
	<path class="st1" d="M406.2,208.9h-8.5v-5.1h22.4v5.1h-8.5v26h-5.3L406.2,208.9z"/>
	<path class="st1" d="M434.7,203.8h5.4l12.1,31h-5.4l-2.8-7.4h-13.1l-2.8,7.4h-5.4L434.7,203.8z M432.8,222.6h9.3l-4.6-12.1
		L432.8,222.6z"/>
	<path class="st1" d="M463.9,203.8l15.5,21.4v-21.4h5.3v31h-4.8l-15.5-21.2v21.3h-5.3v-31L463.9,203.8z"/>
	<path class="st1" d="M520,219.3c0,8.9-6.3,15.5-15.3,15.5h-10v-31h10C513.7,203.8,520,210.4,520,219.3z M514.6,219.3
		c0-5.7-3.8-10.5-9.8-10.5h-4.8v20.9h4.8C510.8,229.8,514.6,225,514.6,219.3L514.6,219.3z"/>
	<path class="st1" d="M536.4,203.8h5.4l12.1,31h-5.3l-2.8-7.4h-13.2l-2.8,7.4h-5.4L536.4,203.8z M534.4,222.6h9.3l-4.6-12.1
		L534.4,222.6z"/>
	<path class="st1" d="M560.8,203.8H571c6.2,0,10.3,4,10.3,9.7c0,4.6-2.5,8.2-6.9,9.3l7.8,12.1h-6.2l-7.3-11.7h-2.4v11.7h-5.3
		L560.8,203.8z M575.9,213.5c0-3.1-2.1-4.6-5.5-4.6h-4.2v9.2h4.2C573.7,218.1,575.9,216.6,575.9,213.5z"/>
	<path class="st1" d="M615.3,219.3c0,8.9-6.3,15.5-15.3,15.5h-10v-31h10C609,203.8,615.3,210.4,615.3,219.3z M609.9,219.3
		c0-5.7-3.8-10.5-9.8-10.5h-4.8v20.9h4.8C606.1,229.8,609.9,225,609.9,219.3L609.9,219.3z"/>
	<path class="st1" d="M633.3,221.9c-4.6-1.6-9.7-4.1-9.7-9.8c0-4.4,3.9-8.8,10.2-8.8c3.9,0.1,7.6,1.9,10.1,4.9l-3.7,3.6
		c0,0-2.6-3.5-6.4-3.5c-2.7,0-4.7,1.6-4.7,3.7c0,2.7,2.4,3.5,6.7,5.1c4.8,1.8,8.7,3.9,8.7,9.5s-5,8.6-10.8,8.6
		c-4.6,0-8.9-2.4-11.3-6.3l4-3.4c0,0,2.7,4.6,7.4,4.6c2.7,0,5.4-1.1,5.4-3.6S637,223.2,633.3,221.9z"/>
</g>
</svg>
